<svg width="1920" height="4769" viewBox="0 0 1920 4769" fill="none" xmlns="http://www.w3.org/2000/svg">
<path d="M575 360C575 332.386 597.386 310 625 310H1920V1079H625C597.386 1079 575 1056.61 575 1029V360Z" fill="#FFF600"/>
<path d="M-13 1913H1282C1309.61 1913 1332 1935.39 1332 1963V2632C1332 2659.61 1309.61 2682 1282 2682H-13V1913Z" fill="#FFF600"/>
<path d="M738 3298C738 3270.39 760.386 3248 788 3248H1927V4017H788C760.386 4017 738 3994.61 738 3967V3298Z" fill="#FFF600"/>
<ellipse cx="1363" cy="1276" rx="52" ry="50" fill="#FFF600"/>
<ellipse cx="1842" cy="2617" rx="52" ry="50" fill="#FFF600"/>
<ellipse cx="271" cy="3688" rx="52" ry="50" fill="#FFF600"/>
<ellipse cx="1343.5" cy="51" rx="30.5" ry="31" fill="#FFF600"/>
<ellipse cx="28" cy="265.5" rx="283" ry="265.5" fill="#FFF600"/>
<ellipse cx="433" cy="1184" rx="141" ry="129" fill="#FFF600"/>
<ellipse cx="51" cy="1490" rx="195" ry="177" fill="#FFF600"/>
<ellipse cx="268.5" cy="4352" rx="417.5" ry="417" fill="#FFF600"/>
<ellipse cx="1825.5" cy="1413.5" rx="296.5" ry="288.5" fill="#FFF600"/>
</svg>
